<?xml version="1.0" encoding="utf-8" standalone="no"?>
<!DOCTYPE svg PUBLIC "-//W3C//DTD SVG 1.1//EN"
  "http://www.w3.org/Graphics/SVG/1.1/DTD/svg11.dtd">
<svg xmlns:xlink="http://www.w3.org/1999/xlink" width="432pt" height="288pt" viewBox="0 0 432 288" xmlns="http://www.w3.org/2000/svg" version="1.1">
 <metadata>
  <rdf:RDF xmlns:dc="http://purl.org/dc/elements/1.1/" xmlns:cc="http://creativecommons.org/ns#" xmlns:rdf="http://www.w3.org/1999/02/22-rdf-syntax-ns#">
   <cc:Work>
    <dc:type rdf:resource="http://purl.org/dc/dcmitype/StillImage"/>
    <dc:date>2023-11-15T13:21:16.026496</dc:date>
    <dc:format>image/svg+xml</dc:format>
    <dc:creator>
     <cc:Agent>
      <dc:title>Matplotlib v3.8.1, https://matplotlib.org/</dc:title>
     </cc:Agent>
    </dc:creator>
   </cc:Work>
  </rdf:RDF>
 </metadata>
 <defs>
  <style type="text/css">*{stroke-linejoin: round; stroke-linecap: butt}</style>
 </defs>
 <g id="figure_1">
  <g id="patch_1">
   <path d="M 0 288 
L 432 288 
L 432 0 
L 0 0 
z
" style="fill: #ffffff"/>
  </g>
  <g id="axes_1">
   <g id="patch_2">
    <path d="M 46.55 246.04 
L 411.705 246.04 
L 411.705 10.8 
L 46.55 10.8 
z
" style="fill: #ffffff"/>
   </g>
   <g id="matplotlib.axis_1">
    <g id="xtick_1">
     <g id="line2d_1">
      <path d="M 46.55 246.04 
L 46.55 10.8 
" clip-path="url(#pcbb1456d97)" style="fill: none; stroke: #d3d3d3; stroke-width: 0.8; stroke-linecap: square"/>
     </g>
     <g id="line2d_2">
      <defs>
       <path id="mdbee6e0517" d="M 0 0 
L 0 3.5 
" style="stroke: #000000; stroke-width: 0.8"/>
      </defs>
      <g>
       <use xlink:href="#mdbee6e0517" x="46.55" y="246.04" style="stroke: #000000; stroke-width: 0.8"/>
      </g>
     </g>
     <g id="text_1">
      <!-- 0 -->
      <g transform="translate(43.36875 260.638438) scale(0.1 -0.1)">
       <defs>
        <path id="DejaVuSans-30" d="M 2034 4250 
Q 1547 4250 1301 3770 
Q 1056 3291 1056 2328 
Q 1056 1369 1301 889 
Q 1547 409 2034 409 
Q 2525 409 2770 889 
Q 3016 1369 3016 2328 
Q 3016 3291 2770 3770 
Q 2525 4250 2034 4250 
z
M 2034 4750 
Q 2819 4750 3233 4129 
Q 3647 3509 3647 2328 
Q 3647 1150 3233 529 
Q 2819 -91 2034 -91 
Q 1250 -91 836 529 
Q 422 1150 422 2328 
Q 422 3509 836 4129 
Q 1250 4750 2034 4750 
z
" transform="scale(0.015625)"/>
       </defs>
       <use xlink:href="#DejaVuSans-30"/>
      </g>
     </g>
    </g>
    <g id="xtick_2">
     <g id="line2d_3">
      <path d="M 119.581 246.04 
L 119.581 10.8 
" clip-path="url(#pcbb1456d97)" style="fill: none; stroke: #d3d3d3; stroke-width: 0.8; stroke-linecap: square"/>
     </g>
     <g id="line2d_4">
      <g>
       <use xlink:href="#mdbee6e0517" x="119.581" y="246.04" style="stroke: #000000; stroke-width: 0.8"/>
      </g>
     </g>
     <g id="text_2">
      <!-- 20 -->
      <g transform="translate(113.2185 260.638438) scale(0.1 -0.1)">
       <defs>
        <path id="DejaVuSans-32" d="M 1228 531 
L 3431 531 
L 3431 0 
L 469 0 
L 469 531 
Q 828 903 1448 1529 
Q 2069 2156 2228 2338 
Q 2531 2678 2651 2914 
Q 2772 3150 2772 3378 
Q 2772 3750 2511 3984 
Q 2250 4219 1831 4219 
Q 1534 4219 1204 4116 
Q 875 4013 500 3803 
L 500 4441 
Q 881 4594 1212 4672 
Q 1544 4750 1819 4750 
Q 2544 4750 2975 4387 
Q 3406 4025 3406 3419 
Q 3406 3131 3298 2873 
Q 3191 2616 2906 2266 
Q 2828 2175 2409 1742 
Q 1991 1309 1228 531 
z
" transform="scale(0.015625)"/>
       </defs>
       <use xlink:href="#DejaVuSans-32"/>
       <use xlink:href="#DejaVuSans-30" x="63.623047"/>
      </g>
     </g>
    </g>
    <g id="xtick_3">
     <g id="line2d_5">
      <path d="M 192.612 246.04 
L 192.612 10.8 
" clip-path="url(#pcbb1456d97)" style="fill: none; stroke: #d3d3d3; stroke-width: 0.8; stroke-linecap: square"/>
     </g>
     <g id="line2d_6">
      <g>
       <use xlink:href="#mdbee6e0517" x="192.612" y="246.04" style="stroke: #000000; stroke-width: 0.8"/>
      </g>
     </g>
     <g id="text_3">
      <!-- 40 -->
      <g transform="translate(186.2495 260.638438) scale(0.1 -0.1)">
       <defs>
        <path id="DejaVuSans-34" d="M 2419 4116 
L 825 1625 
L 2419 1625 
L 2419 4116 
z
M 2253 4666 
L 3047 4666 
L 3047 1625 
L 3713 1625 
L 3713 1100 
L 3047 1100 
L 3047 0 
L 2419 0 
L 2419 1100 
L 313 1100 
L 313 1709 
L 2253 4666 
z
" transform="scale(0.015625)"/>
       </defs>
       <use xlink:href="#DejaVuSans-34"/>
       <use xlink:href="#DejaVuSans-30" x="63.623047"/>
      </g>
     </g>
    </g>
    <g id="xtick_4">
     <g id="line2d_7">
      <path d="M 265.643 246.04 
L 265.643 10.8 
" clip-path="url(#pcbb1456d97)" style="fill: none; stroke: #d3d3d3; stroke-width: 0.8; stroke-linecap: square"/>
     </g>
     <g id="line2d_8">
      <g>
       <use xlink:href="#mdbee6e0517" x="265.643" y="246.04" style="stroke: #000000; stroke-width: 0.8"/>
      </g>
     </g>
     <g id="text_4">
      <!-- 60 -->
      <g transform="translate(259.2805 260.638438) scale(0.1 -0.1)">
       <defs>
        <path id="DejaVuSans-36" d="M 2113 2584 
Q 1688 2584 1439 2293 
Q 1191 2003 1191 1497 
Q 1191 994 1439 701 
Q 1688 409 2113 409 
Q 2538 409 2786 701 
Q 3034 994 3034 1497 
Q 3034 2003 2786 2293 
Q 2538 2584 2113 2584 
z
M 3366 4563 
L 3366 3988 
Q 3128 4100 2886 4159 
Q 2644 4219 2406 4219 
Q 1781 4219 1451 3797 
Q 1122 3375 1075 2522 
Q 1259 2794 1537 2939 
Q 1816 3084 2150 3084 
Q 2853 3084 3261 2657 
Q 3669 2231 3669 1497 
Q 3669 778 3244 343 
Q 2819 -91 2113 -91 
Q 1303 -91 875 529 
Q 447 1150 447 2328 
Q 447 3434 972 4092 
Q 1497 4750 2381 4750 
Q 2619 4750 2861 4703 
Q 3103 4656 3366 4563 
z
" transform="scale(0.015625)"/>
       </defs>
       <use xlink:href="#DejaVuSans-36"/>
       <use xlink:href="#DejaVuSans-30" x="63.623047"/>
      </g>
     </g>
    </g>
    <g id="xtick_5">
     <g id="line2d_9">
      <path d="M 338.674 246.04 
L 338.674 10.8 
" clip-path="url(#pcbb1456d97)" style="fill: none; stroke: #d3d3d3; stroke-width: 0.8; stroke-linecap: square"/>
     </g>
     <g id="line2d_10">
      <g>
       <use xlink:href="#mdbee6e0517" x="338.674" y="246.04" style="stroke: #000000; stroke-width: 0.8"/>
      </g>
     </g>
     <g id="text_5">
      <!-- 80 -->
      <g transform="translate(332.3115 260.638438) scale(0.1 -0.1)">
       <defs>
        <path id="DejaVuSans-38" d="M 2034 2216 
Q 1584 2216 1326 1975 
Q 1069 1734 1069 1313 
Q 1069 891 1326 650 
Q 1584 409 2034 409 
Q 2484 409 2743 651 
Q 3003 894 3003 1313 
Q 3003 1734 2745 1975 
Q 2488 2216 2034 2216 
z
M 1403 2484 
Q 997 2584 770 2862 
Q 544 3141 544 3541 
Q 544 4100 942 4425 
Q 1341 4750 2034 4750 
Q 2731 4750 3128 4425 
Q 3525 4100 3525 3541 
Q 3525 3141 3298 2862 
Q 3072 2584 2669 2484 
Q 3125 2378 3379 2068 
Q 3634 1759 3634 1313 
Q 3634 634 3220 271 
Q 2806 -91 2034 -91 
Q 1263 -91 848 271 
Q 434 634 434 1313 
Q 434 1759 690 2068 
Q 947 2378 1403 2484 
z
M 1172 3481 
Q 1172 3119 1398 2916 
Q 1625 2713 2034 2713 
Q 2441 2713 2670 2916 
Q 2900 3119 2900 3481 
Q 2900 3844 2670 4047 
Q 2441 4250 2034 4250 
Q 1625 4250 1398 4047 
Q 1172 3844 1172 3481 
z
" transform="scale(0.015625)"/>
       </defs>
       <use xlink:href="#DejaVuSans-38"/>
       <use xlink:href="#DejaVuSans-30" x="63.623047"/>
      </g>
     </g>
    </g>
    <g id="xtick_6">
     <g id="line2d_11">
      <path d="M 411.705 246.04 
L 411.705 10.8 
" clip-path="url(#pcbb1456d97)" style="fill: none; stroke: #d3d3d3; stroke-width: 0.8; stroke-linecap: square"/>
     </g>
     <g id="line2d_12">
      <g>
       <use xlink:href="#mdbee6e0517" x="411.705" y="246.04" style="stroke: #000000; stroke-width: 0.8"/>
      </g>
     </g>
     <g id="text_6">
      <!-- 100 -->
      <g transform="translate(402.16125 260.638438) scale(0.1 -0.1)">
       <defs>
        <path id="DejaVuSans-31" d="M 794 531 
L 1825 531 
L 1825 4091 
L 703 3866 
L 703 4441 
L 1819 4666 
L 2450 4666 
L 2450 531 
L 3481 531 
L 3481 0 
L 794 0 
L 794 531 
z
" transform="scale(0.015625)"/>
       </defs>
       <use xlink:href="#DejaVuSans-31"/>
       <use xlink:href="#DejaVuSans-30" x="63.623047"/>
       <use xlink:href="#DejaVuSans-30" x="127.246094"/>
      </g>
     </g>
    </g>
    <g id="text_7">
     <!-- time step -->
     <g transform="translate(205.426719 274.316562) scale(0.1 -0.1)">
      <defs>
       <path id="DejaVuSans-74" d="M 1172 4494 
L 1172 3500 
L 2356 3500 
L 2356 3053 
L 1172 3053 
L 1172 1153 
Q 1172 725 1289 603 
Q 1406 481 1766 481 
L 2356 481 
L 2356 0 
L 1766 0 
Q 1100 0 847 248 
Q 594 497 594 1153 
L 594 3053 
L 172 3053 
L 172 3500 
L 594 3500 
L 594 4494 
L 1172 4494 
z
" transform="scale(0.015625)"/>
       <path id="DejaVuSans-69" d="M 603 3500 
L 1178 3500 
L 1178 0 
L 603 0 
L 603 3500 
z
M 603 4863 
L 1178 4863 
L 1178 4134 
L 603 4134 
L 603 4863 
z
" transform="scale(0.015625)"/>
       <path id="DejaVuSans-6d" d="M 3328 2828 
Q 3544 3216 3844 3400 
Q 4144 3584 4550 3584 
Q 5097 3584 5394 3201 
Q 5691 2819 5691 2113 
L 5691 0 
L 5113 0 
L 5113 2094 
Q 5113 2597 4934 2840 
Q 4756 3084 4391 3084 
Q 3944 3084 3684 2787 
Q 3425 2491 3425 1978 
L 3425 0 
L 2847 0 
L 2847 2094 
Q 2847 2600 2669 2842 
Q 2491 3084 2119 3084 
Q 1678 3084 1418 2786 
Q 1159 2488 1159 1978 
L 1159 0 
L 581 0 
L 581 3500 
L 1159 3500 
L 1159 2956 
Q 1356 3278 1631 3431 
Q 1906 3584 2284 3584 
Q 2666 3584 2933 3390 
Q 3200 3197 3328 2828 
z
" transform="scale(0.015625)"/>
       <path id="DejaVuSans-65" d="M 3597 1894 
L 3597 1613 
L 953 1613 
Q 991 1019 1311 708 
Q 1631 397 2203 397 
Q 2534 397 2845 478 
Q 3156 559 3463 722 
L 3463 178 
Q 3153 47 2828 -22 
Q 2503 -91 2169 -91 
Q 1331 -91 842 396 
Q 353 884 353 1716 
Q 353 2575 817 3079 
Q 1281 3584 2069 3584 
Q 2775 3584 3186 3129 
Q 3597 2675 3597 1894 
z
M 3022 2063 
Q 3016 2534 2758 2815 
Q 2500 3097 2075 3097 
Q 1594 3097 1305 2825 
Q 1016 2553 972 2059 
L 3022 2063 
z
" transform="scale(0.015625)"/>
       <path id="DejaVuSans-20" transform="scale(0.015625)"/>
       <path id="DejaVuSans-73" d="M 2834 3397 
L 2834 2853 
Q 2591 2978 2328 3040 
Q 2066 3103 1784 3103 
Q 1356 3103 1142 2972 
Q 928 2841 928 2578 
Q 928 2378 1081 2264 
Q 1234 2150 1697 2047 
L 1894 2003 
Q 2506 1872 2764 1633 
Q 3022 1394 3022 966 
Q 3022 478 2636 193 
Q 2250 -91 1575 -91 
Q 1294 -91 989 -36 
Q 684 19 347 128 
L 347 722 
Q 666 556 975 473 
Q 1284 391 1588 391 
Q 1994 391 2212 530 
Q 2431 669 2431 922 
Q 2431 1156 2273 1281 
Q 2116 1406 1581 1522 
L 1381 1569 
Q 847 1681 609 1914 
Q 372 2147 372 2553 
Q 372 3047 722 3315 
Q 1072 3584 1716 3584 
Q 2034 3584 2315 3537 
Q 2597 3491 2834 3397 
z
" transform="scale(0.015625)"/>
       <path id="DejaVuSans-70" d="M 1159 525 
L 1159 -1331 
L 581 -1331 
L 581 3500 
L 1159 3500 
L 1159 2969 
Q 1341 3281 1617 3432 
Q 1894 3584 2278 3584 
Q 2916 3584 3314 3078 
Q 3713 2572 3713 1747 
Q 3713 922 3314 415 
Q 2916 -91 2278 -91 
Q 1894 -91 1617 61 
Q 1341 213 1159 525 
z
M 3116 1747 
Q 3116 2381 2855 2742 
Q 2594 3103 2138 3103 
Q 1681 3103 1420 2742 
Q 1159 2381 1159 1747 
Q 1159 1113 1420 752 
Q 1681 391 2138 391 
Q 2594 391 2855 752 
Q 3116 1113 3116 1747 
z
" transform="scale(0.015625)"/>
      </defs>
      <use xlink:href="#DejaVuSans-74"/>
      <use xlink:href="#DejaVuSans-69" x="39.208984"/>
      <use xlink:href="#DejaVuSans-6d" x="66.992188"/>
      <use xlink:href="#DejaVuSans-65" x="164.404297"/>
      <use xlink:href="#DejaVuSans-20" x="225.927734"/>
      <use xlink:href="#DejaVuSans-73" x="257.714844"/>
      <use xlink:href="#DejaVuSans-74" x="309.814453"/>
      <use xlink:href="#DejaVuSans-65" x="349.023438"/>
      <use xlink:href="#DejaVuSans-70" x="410.546875"/>
     </g>
    </g>
   </g>
   <g id="matplotlib.axis_2">
    <g id="ytick_1">
     <g id="line2d_13">
      <path d="M 46.55 232.971111 
L 411.705 232.971111 
" clip-path="url(#pcbb1456d97)" style="fill: none; stroke: #d3d3d3; stroke-width: 0.8; stroke-linecap: square"/>
     </g>
     <g id="line2d_14">
      <defs>
       <path id="m753c15f73d" d="M 0 0 
L -3.5 0 
" style="stroke: #000000; stroke-width: 0.8"/>
      </defs>
      <g>
       <use xlink:href="#m753c15f73d" x="46.55" y="232.971111" style="stroke: #000000; stroke-width: 0.8"/>
      </g>
     </g>
     <g id="text_8">
      <!-- −2 -->
      <g transform="translate(24.807813 236.77033) scale(0.1 -0.1)">
       <defs>
        <path id="DejaVuSans-2212" d="M 678 2272 
L 4684 2272 
L 4684 1741 
L 678 1741 
L 678 2272 
z
" transform="scale(0.015625)"/>
       </defs>
       <use xlink:href="#DejaVuSans-2212"/>
       <use xlink:href="#DejaVuSans-32" x="83.789062"/>
      </g>
     </g>
    </g>
    <g id="ytick_2">
     <g id="line2d_15">
      <path d="M 46.55 206.833333 
L 411.705 206.833333 
" clip-path="url(#pcbb1456d97)" style="fill: none; stroke: #d3d3d3; stroke-width: 0.8; stroke-linecap: square"/>
     </g>
     <g id="line2d_16">
      <g>
       <use xlink:href="#m753c15f73d" x="46.55" y="206.833333" style="stroke: #000000; stroke-width: 0.8"/>
      </g>
     </g>
     <g id="text_9">
      <!-- 0 -->
      <g transform="translate(33.1875 210.632552) scale(0.1 -0.1)">
       <use xlink:href="#DejaVuSans-30"/>
      </g>
     </g>
    </g>
    <g id="ytick_3">
     <g id="line2d_17">
      <path d="M 46.55 180.695556 
L 411.705 180.695556 
" clip-path="url(#pcbb1456d97)" style="fill: none; stroke: #d3d3d3; stroke-width: 0.8; stroke-linecap: square"/>
     </g>
     <g id="line2d_18">
      <g>
       <use xlink:href="#m753c15f73d" x="46.55" y="180.695556" style="stroke: #000000; stroke-width: 0.8"/>
      </g>
     </g>
     <g id="text_10">
      <!-- 2 -->
      <g transform="translate(33.1875 184.494774) scale(0.1 -0.1)">
       <use xlink:href="#DejaVuSans-32"/>
      </g>
     </g>
    </g>
    <g id="ytick_4">
     <g id="line2d_19">
      <path d="M 46.55 154.557778 
L 411.705 154.557778 
" clip-path="url(#pcbb1456d97)" style="fill: none; stroke: #d3d3d3; stroke-width: 0.8; stroke-linecap: square"/>
     </g>
     <g id="line2d_20">
      <g>
       <use xlink:href="#m753c15f73d" x="46.55" y="154.557778" style="stroke: #000000; stroke-width: 0.8"/>
      </g>
     </g>
     <g id="text_11">
      <!-- 4 -->
      <g transform="translate(33.1875 158.356997) scale(0.1 -0.1)">
       <use xlink:href="#DejaVuSans-34"/>
      </g>
     </g>
    </g>
    <g id="ytick_5">
     <g id="line2d_21">
      <path d="M 46.55 128.42 
L 411.705 128.42 
" clip-path="url(#pcbb1456d97)" style="fill: none; stroke: #d3d3d3; stroke-width: 0.8; stroke-linecap: square"/>
     </g>
     <g id="line2d_22">
      <g>
       <use xlink:href="#m753c15f73d" x="46.55" y="128.42" style="stroke: #000000; stroke-width: 0.8"/>
      </g>
     </g>
     <g id="text_12">
      <!-- 6 -->
      <g transform="translate(33.1875 132.219219) scale(0.1 -0.1)">
       <use xlink:href="#DejaVuSans-36"/>
      </g>
     </g>
    </g>
    <g id="ytick_6">
     <g id="line2d_23">
      <path d="M 46.55 102.282222 
L 411.705 102.282222 
" clip-path="url(#pcbb1456d97)" style="fill: none; stroke: #d3d3d3; stroke-width: 0.8; stroke-linecap: square"/>
     </g>
     <g id="line2d_24">
      <g>
       <use xlink:href="#m753c15f73d" x="46.55" y="102.282222" style="stroke: #000000; stroke-width: 0.8"/>
      </g>
     </g>
     <g id="text_13">
      <!-- 8 -->
      <g transform="translate(33.1875 106.081441) scale(0.1 -0.1)">
       <use xlink:href="#DejaVuSans-38"/>
      </g>
     </g>
    </g>
    <g id="ytick_7">
     <g id="line2d_25">
      <path d="M 46.55 76.144444 
L 411.705 76.144444 
" clip-path="url(#pcbb1456d97)" style="fill: none; stroke: #d3d3d3; stroke-width: 0.8; stroke-linecap: square"/>
     </g>
     <g id="line2d_26">
      <g>
       <use xlink:href="#m753c15f73d" x="46.55" y="76.144444" style="stroke: #000000; stroke-width: 0.8"/>
      </g>
     </g>
     <g id="text_14">
      <!-- 10 -->
      <g transform="translate(26.825 79.943663) scale(0.1 -0.1)">
       <use xlink:href="#DejaVuSans-31"/>
       <use xlink:href="#DejaVuSans-30" x="63.623047"/>
      </g>
     </g>
    </g>
    <g id="ytick_8">
     <g id="line2d_27">
      <path d="M 46.55 50.006667 
L 411.705 50.006667 
" clip-path="url(#pcbb1456d97)" style="fill: none; stroke: #d3d3d3; stroke-width: 0.8; stroke-linecap: square"/>
     </g>
     <g id="line2d_28">
      <g>
       <use xlink:href="#m753c15f73d" x="46.55" y="50.006667" style="stroke: #000000; stroke-width: 0.8"/>
      </g>
     </g>
     <g id="text_15">
      <!-- 12 -->
      <g transform="translate(26.825 53.805885) scale(0.1 -0.1)">
       <use xlink:href="#DejaVuSans-31"/>
       <use xlink:href="#DejaVuSans-32" x="63.623047"/>
      </g>
     </g>
    </g>
    <g id="ytick_9">
     <g id="line2d_29">
      <path d="M 46.55 23.868889 
L 411.705 23.868889 
" clip-path="url(#pcbb1456d97)" style="fill: none; stroke: #d3d3d3; stroke-width: 0.8; stroke-linecap: square"/>
     </g>
     <g id="line2d_30">
      <g>
       <use xlink:href="#m753c15f73d" x="46.55" y="23.868889" style="stroke: #000000; stroke-width: 0.8"/>
      </g>
     </g>
     <g id="text_16">
      <!-- 14 -->
      <g transform="translate(26.825 27.668108) scale(0.1 -0.1)">
       <use xlink:href="#DejaVuSans-31"/>
       <use xlink:href="#DejaVuSans-34" x="63.623047"/>
      </g>
     </g>
    </g>
    <g id="text_17">
     <!-- velocity -->
     <g transform="translate(18.728125 147.962188) rotate(-90) scale(0.1 -0.1)">
      <defs>
       <path id="DejaVuSans-76" d="M 191 3500 
L 800 3500 
L 1894 563 
L 2988 3500 
L 3597 3500 
L 2284 0 
L 1503 0 
L 191 3500 
z
" transform="scale(0.015625)"/>
       <path id="DejaVuSans-6c" d="M 603 4863 
L 1178 4863 
L 1178 0 
L 603 0 
L 603 4863 
z
" transform="scale(0.015625)"/>
       <path id="DejaVuSans-6f" d="M 1959 3097 
Q 1497 3097 1228 2736 
Q 959 2375 959 1747 
Q 959 1119 1226 758 
Q 1494 397 1959 397 
Q 2419 397 2687 759 
Q 2956 1122 2956 1747 
Q 2956 2369 2687 2733 
Q 2419 3097 1959 3097 
z
M 1959 3584 
Q 2709 3584 3137 3096 
Q 3566 2609 3566 1747 
Q 3566 888 3137 398 
Q 2709 -91 1959 -91 
Q 1206 -91 779 398 
Q 353 888 353 1747 
Q 353 2609 779 3096 
Q 1206 3584 1959 3584 
z
" transform="scale(0.015625)"/>
       <path id="DejaVuSans-63" d="M 3122 3366 
L 3122 2828 
Q 2878 2963 2633 3030 
Q 2388 3097 2138 3097 
Q 1578 3097 1268 2742 
Q 959 2388 959 1747 
Q 959 1106 1268 751 
Q 1578 397 2138 397 
Q 2388 397 2633 464 
Q 2878 531 3122 666 
L 3122 134 
Q 2881 22 2623 -34 
Q 2366 -91 2075 -91 
Q 1284 -91 818 406 
Q 353 903 353 1747 
Q 353 2603 823 3093 
Q 1294 3584 2113 3584 
Q 2378 3584 2631 3529 
Q 2884 3475 3122 3366 
z
" transform="scale(0.015625)"/>
       <path id="DejaVuSans-79" d="M 2059 -325 
Q 1816 -950 1584 -1140 
Q 1353 -1331 966 -1331 
L 506 -1331 
L 506 -850 
L 844 -850 
Q 1081 -850 1212 -737 
Q 1344 -625 1503 -206 
L 1606 56 
L 191 3500 
L 800 3500 
L 1894 763 
L 2988 3500 
L 3597 3500 
L 2059 -325 
z
" transform="scale(0.015625)"/>
      </defs>
      <use xlink:href="#DejaVuSans-76"/>
      <use xlink:href="#DejaVuSans-65" x="59.179688"/>
      <use xlink:href="#DejaVuSans-6c" x="120.703125"/>
      <use xlink:href="#DejaVuSans-6f" x="148.486328"/>
      <use xlink:href="#DejaVuSans-63" x="209.667969"/>
      <use xlink:href="#DejaVuSans-69" x="264.648438"/>
      <use xlink:href="#DejaVuSans-74" x="292.431641"/>
      <use xlink:href="#DejaVuSans-79" x="331.640625"/>
     </g>
    </g>
   </g>
   <g id="PolyCollection_1">
    <defs>
     <path id="mab4cd96c82" d="M 50.20155 -150.394762 
L 50.20155 -126.120844 
L 53.8531 -107.818351 
L 57.50465 -120.737227 
L 61.1562 -119.729407 
L 64.80775 -131.520564 
L 68.4593 -129.101518 
L 72.11085 -121.082707 
L 75.7624 -114.86082 
L 79.41395 -118.56438 
L 83.0655 -131.963795 
L 86.71705 -141.123628 
L 90.3686 -134.27556 
L 94.02015 -125.247388 
L 97.6717 -131.353548 
L 101.32325 -136.937065 
L 104.9748 -124.781046 
L 108.62635 -116.424656 
L 112.2779 -106.893853 
L 115.92945 -101.311201 
L 119.581 -116.04574 
L 123.23255 -103.457677 
L 126.8841 -86.863358 
L 130.53565 -113.563225 
L 134.1872 -106.154789 
L 137.83875 -105.468831 
L 141.4903 -99.69979 
L 145.14185 -93.334912 
L 148.7934 -97.961782 
L 152.44495 -88.242318 
L 156.0965 -86.523977 
L 159.74805 -94.460936 
L 163.3996 -103.97202 
L 167.05115 -110.40996 
L 170.7027 -98.222057 
L 174.35425 -120.224452 
L 178.0058 -124.467359 
L 181.65735 -129.028942 
L 185.3089 -132.337156 
L 188.96045 -139.028803 
L 192.612 -135.608824 
L 196.26355 -138.016791 
L 199.9151 -145.089089 
L 203.56665 -143.529171 
L 207.2182 -148.795322 
L 210.86975 -160.580472 
L 214.5213 -161.672038 
L 218.17285 -156.439289 
L 221.8244 -157.318034 
L 225.47595 -155.285503 
L 229.1275 -156.762011 
L 232.77905 -153.267506 
L 236.4306 -147.719768 
L 240.08215 -133.536645 
L 243.7337 -126.446806 
L 247.38525 -120.639456 
L 251.0368 -120.681396 
L 254.68835 -130.245463 
L 258.3399 -118.765893 
L 261.99145 -118.410494 
L 265.643 -113.012968 
L 269.29455 -110.461322 
L 272.9461 -113.049629 
L 276.59765 -110.070656 
L 280.2492 -117.389003 
L 283.90075 -123.572736 
L 287.5523 -128.059669 
L 291.20385 -124.306876 
L 294.8554 -120.74617 
L 298.50695 -126.971897 
L 302.1585 -127.311436 
L 305.81005 -138.994025 
L 309.4616 -139.086609 
L 313.11315 -146.524148 
L 316.7647 -149.733543 
L 320.41625 -148.087945 
L 324.0678 -153.650368 
L 327.71935 -152.78321 
L 331.3709 -151.58191 
L 335.02245 -152.680143 
L 338.674 -153.047635 
L 342.32555 -162.336752 
L 345.9771 -164.906834 
L 349.62865 -168.449247 
L 353.2802 -180.364364 
L 356.93175 -180.768546 
L 360.5833 -175.694451 
L 364.23485 -185.569119 
L 367.8864 -182.873005 
L 371.53795 -203.015971 
L 375.1895 -210.241701 
L 378.84105 -205.276943 
L 382.4926 -202.088062 
L 386.14415 -193.402743 
L 389.7957 -192.77423 
L 393.44725 -183.563771 
L 397.0988 -175.319379 
L 400.75035 -173.150001 
L 404.4019 -164.85289 
L 408.05345 -158.059288 
L 411.705 -158.207992 
L 411.705 -181.055857 
L 411.705 -181.055857 
L 408.05345 -180.907153 
L 404.4019 -187.700755 
L 400.75035 -195.997866 
L 397.0988 -198.167244 
L 393.44725 -206.411637 
L 389.7957 -215.622095 
L 386.14415 -216.250608 
L 382.4926 -224.935927 
L 378.84105 -228.124809 
L 375.1895 -233.089567 
L 371.53795 -225.863838 
L 367.8864 -205.720872 
L 364.23485 -208.416986 
L 360.5833 -198.542318 
L 356.93175 -203.616414 
L 353.2802 -203.212232 
L 349.62865 -191.297115 
L 345.9771 -187.754703 
L 342.32555 -185.184621 
L 338.674 -175.895504 
L 335.02245 -175.528014 
L 331.3709 -174.429781 
L 327.71935 -175.631082 
L 324.0678 -176.498241 
L 320.41625 -170.935819 
L 316.7647 -172.581418 
L 313.11315 -169.372024 
L 309.4616 -161.934486 
L 305.81005 -161.841903 
L 302.1585 -150.159316 
L 298.50695 -149.819779 
L 294.8554 -143.594053 
L 291.20385 -147.154762 
L 287.5523 -150.907557 
L 283.90075 -146.420626 
L 280.2492 -140.236896 
L 276.59765 -132.918553 
L 272.9461 -135.897528 
L 269.29455 -133.309225 
L 265.643 -135.860876 
L 261.99145 -141.258406 
L 258.3399 -141.61381 
L 254.68835 -153.093386 
L 251.0368 -143.529326 
L 247.38525 -143.487393 
L 243.7337 -149.29475 
L 240.08215 -156.384598 
L 236.4306 -170.56773 
L 232.77905 -176.115479 
L 229.1275 -179.609996 
L 225.47595 -178.133501 
L 221.8244 -180.166046 
L 218.17285 -179.287317 
L 214.5213 -184.520084 
L 210.86975 -183.428536 
L 207.2182 -171.643408 
L 203.56665 -166.377281 
L 199.9151 -167.937225 
L 196.26355 -160.864957 
L 192.612 -158.457022 
L 188.96045 -161.877037 
L 185.3089 -155.18543 
L 181.65735 -151.877259 
L 178.0058 -147.315726 
L 174.35425 -143.072873 
L 170.7027 -121.070538 
L 167.05115 -133.258508 
L 163.3996 -126.820642 
L 159.74805 -117.30964 
L 156.0965 -109.372773 
L 152.44495 -111.091215 
L 148.7934 -120.810792 
L 145.14185 -116.184047 
L 141.4903 -122.549066 
L 137.83875 -128.318263 
L 134.1872 -129.004394 
L 130.53565 -136.413024 
L 126.8841 -109.713373 
L 123.23255 -126.307934 
L 119.581 -138.896269 
L 115.92945 -124.162036 
L 112.2779 -129.745034 
L 108.62635 -139.27623 
L 104.9748 -147.63307 
L 101.32325 -159.789611 
L 97.6717 -154.206709 
L 94.02015 -148.101291 
L 90.3686 -157.130391 
L 86.71705 -163.979683 
L 83.0655 -154.821575 
L 79.41395 -141.424805 
L 75.7624 -137.72568 
L 72.11085 -143.95565 
L 68.4593 -151.990264 
L 64.80775 -154.441872 
L 61.1562 -142.720363 
L 57.50465 -143.881196 
L 53.8531 -131.305593 
L 50.20155 -150.394762 
z
" style="stroke: #666666; stroke-opacity: 0.2"/>
    </defs>
    <g clip-path="url(#pcbb1456d97)">
     <use xlink:href="#mab4cd96c82" x="0" y="288" style="fill: #666666; fill-opacity: 0.2; stroke: #666666; stroke-opacity: 0.2"/>
    </g>
   </g>
   <g id="patch_3">
    <path d="M 46.55 246.04 
L 46.55 10.8 
" style="fill: none; stroke: #000000; stroke-width: 0.8; stroke-linejoin: miter; stroke-linecap: square"/>
   </g>
   <g id="patch_4">
    <path d="M 411.705 246.04 
L 411.705 10.8 
" style="fill: none; stroke: #000000; stroke-width: 0.8; stroke-linejoin: miter; stroke-linecap: square"/>
   </g>
   <g id="patch_5">
    <path d="M 46.55 246.04 
L 411.705 246.04 
" style="fill: none; stroke: #000000; stroke-width: 0.8; stroke-linejoin: miter; stroke-linecap: square"/>
   </g>
   <g id="patch_6">
    <path d="M 46.55 10.8 
L 411.705 10.8 
" style="fill: none; stroke: #000000; stroke-width: 0.8; stroke-linejoin: miter; stroke-linecap: square"/>
   </g>
   <g id="line2d_31">
    <path d="M 50.20155 162.726652 
L 53.8531 203.480048 
L 57.50465 133.417059 
L 61.1562 159.104492 
L 64.80775 125.918151 
L 68.4593 155.356397 
L 72.11085 172.605433 
L 75.7624 173.114781 
L 79.41395 148.786413 
L 83.0655 119.301802 
L 86.71705 115.211796 
L 90.3686 156.20137 
L 94.02015 167.890254 
L 97.6717 135.394515 
L 101.32325 126.688926 
L 104.9748 176.758131 
L 108.62635 172.440939 
L 112.2779 182.848644 
L 115.92945 186.423489 
L 119.581 129.261949 
L 123.23255 195.661453 
L 126.8841 225.820402 
L 130.53565 111.417408 
L 134.1872 183.721109 
L 137.83875 171.826059 
L 141.4903 188.483599 
L 145.14185 196.161949 
L 148.7934 175.762806 
L 152.44495 204.143086 
L 156.0965 189.58834 
L 159.74805 166.387729 
L 163.3996 156.512057 
L 167.05115 153.83045 
L 170.7027 200.97867 
L 174.35425 117.250699 
L 178.0058 143.508113 
L 181.65735 139.181396 
L 185.3089 135.253099 
L 188.96045 123.269517 
L 192.612 143.447302 
L 196.26355 134.629223 
L 199.9151 116.867215 
L 203.56665 136.015869 
L 207.2182 116.274703 
L 210.86975 88.899326 
L 214.5213 112.091566 
L 218.17285 128.140604 
L 221.8244 116.1563 
L 225.47595 126.734873 
L 229.1275 119.848952 
L 232.77905 126.011048 
L 236.4306 138.305773 
L 240.08215 169.068005 
L 243.7337 160.897905 
L 247.38525 167.704753 
L 251.0368 157.154045 
L 254.68835 129.933353 
L 258.3399 181.158826 
L 261.99145 159.254878 
L 265.643 172.164003 
L 269.29455 170.003584 
L 272.9461 159.256527 
L 276.59765 174.174545 
L 280.2492 142.785178 
L 283.90075 139.045188 
L 287.5523 143.603841 
L 291.20385 156.582394 
L 294.8554 162.808295 
L 298.50695 137.879407 
L 302.1585 148.776365 
L 305.81005 114.847374 
L 309.4616 136.288482 
L 313.11315 118.454417 
L 316.7647 120.982982 
L 320.41625 130.66609 
L 324.0678 110.495065 
L 327.71935 125.395906 
L 331.3709 125.167811 
L 335.02245 119.526512 
L 338.674 121.77582 
L 342.32555 94.408223 
L 345.9771 110.674233 
L 349.62865 101.233149 
L 353.2802 72.094416 
L 356.93175 95.481904 
L 360.5833 112.48809 
L 364.23485 69.629738 
L 367.8864 100.737532 
L 371.53795 32.44388 
L 375.1895 52.024796 
L 378.84105 74.653405 
L 382.4926 81.66551 
L 386.14415 104.151155 
L 389.7957 84.790087 
L 393.44725 107.076248 
L 397.0988 116.319341 
L 400.75035 110.158723 
L 404.4019 128.073108 
L 408.05345 132.373741 
L 411.705 120.128637 
" style="fill: none; stroke: #d95f02; stroke-opacity: 0.3; stroke-width: 1.5; stroke-linecap: square"/>
    <defs>
     <path id="m283b3ffe18" d="M 0 2.5 
C 0.663008 2.5 1.29895 2.236584 1.767767 1.767767 
C 2.236584 1.29895 2.5 0.663008 2.5 0 
C 2.5 -0.663008 2.236584 -1.29895 1.767767 -1.767767 
C 1.29895 -2.236584 0.663008 -2.5 0 -2.5 
C -0.663008 -2.5 -1.29895 -2.236584 -1.767767 -1.767767 
C -2.236584 -1.29895 -2.5 -0.663008 -2.5 0 
C -2.5 0.663008 -2.236584 1.29895 -1.767767 1.767767 
C -1.29895 2.236584 -0.663008 2.5 0 2.5 
z
" style="stroke: #d95f02; stroke-opacity: 0.3"/>
    </defs>
    <g>
     <use xlink:href="#m283b3ffe18" x="50.20155" y="162.726652" style="fill: #d95f02; fill-opacity: 0.3; stroke: #d95f02; stroke-opacity: 0.3"/>
     <use xlink:href="#m283b3ffe18" x="53.8531" y="203.480048" style="fill: #d95f02; fill-opacity: 0.3; stroke: #d95f02; stroke-opacity: 0.3"/>
     <use xlink:href="#m283b3ffe18" x="57.50465" y="133.417059" style="fill: #d95f02; fill-opacity: 0.3; stroke: #d95f02; stroke-opacity: 0.3"/>
     <use xlink:href="#m283b3ffe18" x="61.1562" y="159.104492" style="fill: #d95f02; fill-opacity: 0.3; stroke: #d95f02; stroke-opacity: 0.3"/>
     <use xlink:href="#m283b3ffe18" x="64.80775" y="125.918151" style="fill: #d95f02; fill-opacity: 0.3; stroke: #d95f02; stroke-opacity: 0.3"/>
     <use xlink:href="#m283b3ffe18" x="68.4593" y="155.356397" style="fill: #d95f02; fill-opacity: 0.3; stroke: #d95f02; stroke-opacity: 0.3"/>
     <use xlink:href="#m283b3ffe18" x="72.11085" y="172.605433" style="fill: #d95f02; fill-opacity: 0.3; stroke: #d95f02; stroke-opacity: 0.3"/>
     <use xlink:href="#m283b3ffe18" x="75.7624" y="173.114781" style="fill: #d95f02; fill-opacity: 0.3; stroke: #d95f02; stroke-opacity: 0.3"/>
     <use xlink:href="#m283b3ffe18" x="79.41395" y="148.786413" style="fill: #d95f02; fill-opacity: 0.3; stroke: #d95f02; stroke-opacity: 0.3"/>
     <use xlink:href="#m283b3ffe18" x="83.0655" y="119.301802" style="fill: #d95f02; fill-opacity: 0.3; stroke: #d95f02; stroke-opacity: 0.3"/>
     <use xlink:href="#m283b3ffe18" x="86.71705" y="115.211796" style="fill: #d95f02; fill-opacity: 0.3; stroke: #d95f02; stroke-opacity: 0.3"/>
     <use xlink:href="#m283b3ffe18" x="90.3686" y="156.20137" style="fill: #d95f02; fill-opacity: 0.3; stroke: #d95f02; stroke-opacity: 0.3"/>
     <use xlink:href="#m283b3ffe18" x="94.02015" y="167.890254" style="fill: #d95f02; fill-opacity: 0.3; stroke: #d95f02; stroke-opacity: 0.3"/>
     <use xlink:href="#m283b3ffe18" x="97.6717" y="135.394515" style="fill: #d95f02; fill-opacity: 0.3; stroke: #d95f02; stroke-opacity: 0.3"/>
     <use xlink:href="#m283b3ffe18" x="101.32325" y="126.688926" style="fill: #d95f02; fill-opacity: 0.3; stroke: #d95f02; stroke-opacity: 0.3"/>
     <use xlink:href="#m283b3ffe18" x="104.9748" y="176.758131" style="fill: #d95f02; fill-opacity: 0.3; stroke: #d95f02; stroke-opacity: 0.3"/>
     <use xlink:href="#m283b3ffe18" x="108.62635" y="172.440939" style="fill: #d95f02; fill-opacity: 0.3; stroke: #d95f02; stroke-opacity: 0.3"/>
     <use xlink:href="#m283b3ffe18" x="112.2779" y="182.848644" style="fill: #d95f02; fill-opacity: 0.3; stroke: #d95f02; stroke-opacity: 0.3"/>
     <use xlink:href="#m283b3ffe18" x="115.92945" y="186.423489" style="fill: #d95f02; fill-opacity: 0.3; stroke: #d95f02; stroke-opacity: 0.3"/>
     <use xlink:href="#m283b3ffe18" x="119.581" y="129.261949" style="fill: #d95f02; fill-opacity: 0.3; stroke: #d95f02; stroke-opacity: 0.3"/>
     <use xlink:href="#m283b3ffe18" x="123.23255" y="195.661453" style="fill: #d95f02; fill-opacity: 0.3; stroke: #d95f02; stroke-opacity: 0.3"/>
     <use xlink:href="#m283b3ffe18" x="126.8841" y="225.820402" style="fill: #d95f02; fill-opacity: 0.3; stroke: #d95f02; stroke-opacity: 0.3"/>
     <use xlink:href="#m283b3ffe18" x="130.53565" y="111.417408" style="fill: #d95f02; fill-opacity: 0.3; stroke: #d95f02; stroke-opacity: 0.3"/>
     <use xlink:href="#m283b3ffe18" x="134.1872" y="183.721109" style="fill: #d95f02; fill-opacity: 0.3; stroke: #d95f02; stroke-opacity: 0.3"/>
     <use xlink:href="#m283b3ffe18" x="137.83875" y="171.826059" style="fill: #d95f02; fill-opacity: 0.3; stroke: #d95f02; stroke-opacity: 0.3"/>
     <use xlink:href="#m283b3ffe18" x="141.4903" y="188.483599" style="fill: #d95f02; fill-opacity: 0.3; stroke: #d95f02; stroke-opacity: 0.3"/>
     <use xlink:href="#m283b3ffe18" x="145.14185" y="196.161949" style="fill: #d95f02; fill-opacity: 0.3; stroke: #d95f02; stroke-opacity: 0.3"/>
     <use xlink:href="#m283b3ffe18" x="148.7934" y="175.762806" style="fill: #d95f02; fill-opacity: 0.3; stroke: #d95f02; stroke-opacity: 0.3"/>
     <use xlink:href="#m283b3ffe18" x="152.44495" y="204.143086" style="fill: #d95f02; fill-opacity: 0.3; stroke: #d95f02; stroke-opacity: 0.3"/>
     <use xlink:href="#m283b3ffe18" x="156.0965" y="189.58834" style="fill: #d95f02; fill-opacity: 0.3; stroke: #d95f02; stroke-opacity: 0.3"/>
     <use xlink:href="#m283b3ffe18" x="159.74805" y="166.387729" style="fill: #d95f02; fill-opacity: 0.3; stroke: #d95f02; stroke-opacity: 0.3"/>
     <use xlink:href="#m283b3ffe18" x="163.3996" y="156.512057" style="fill: #d95f02; fill-opacity: 0.3; stroke: #d95f02; stroke-opacity: 0.3"/>
     <use xlink:href="#m283b3ffe18" x="167.05115" y="153.83045" style="fill: #d95f02; fill-opacity: 0.3; stroke: #d95f02; stroke-opacity: 0.3"/>
     <use xlink:href="#m283b3ffe18" x="170.7027" y="200.97867" style="fill: #d95f02; fill-opacity: 0.3; stroke: #d95f02; stroke-opacity: 0.3"/>
     <use xlink:href="#m283b3ffe18" x="174.35425" y="117.250699" style="fill: #d95f02; fill-opacity: 0.3; stroke: #d95f02; stroke-opacity: 0.3"/>
     <use xlink:href="#m283b3ffe18" x="178.0058" y="143.508113" style="fill: #d95f02; fill-opacity: 0.3; stroke: #d95f02; stroke-opacity: 0.3"/>
     <use xlink:href="#m283b3ffe18" x="181.65735" y="139.181396" style="fill: #d95f02; fill-opacity: 0.3; stroke: #d95f02; stroke-opacity: 0.3"/>
     <use xlink:href="#m283b3ffe18" x="185.3089" y="135.253099" style="fill: #d95f02; fill-opacity: 0.3; stroke: #d95f02; stroke-opacity: 0.3"/>
     <use xlink:href="#m283b3ffe18" x="188.96045" y="123.269517" style="fill: #d95f02; fill-opacity: 0.3; stroke: #d95f02; stroke-opacity: 0.3"/>
     <use xlink:href="#m283b3ffe18" x="192.612" y="143.447302" style="fill: #d95f02; fill-opacity: 0.3; stroke: #d95f02; stroke-opacity: 0.3"/>
     <use xlink:href="#m283b3ffe18" x="196.26355" y="134.629223" style="fill: #d95f02; fill-opacity: 0.3; stroke: #d95f02; stroke-opacity: 0.3"/>
     <use xlink:href="#m283b3ffe18" x="199.9151" y="116.867215" style="fill: #d95f02; fill-opacity: 0.3; stroke: #d95f02; stroke-opacity: 0.3"/>
     <use xlink:href="#m283b3ffe18" x="203.56665" y="136.015869" style="fill: #d95f02; fill-opacity: 0.3; stroke: #d95f02; stroke-opacity: 0.3"/>
     <use xlink:href="#m283b3ffe18" x="207.2182" y="116.274703" style="fill: #d95f02; fill-opacity: 0.3; stroke: #d95f02; stroke-opacity: 0.3"/>
     <use xlink:href="#m283b3ffe18" x="210.86975" y="88.899326" style="fill: #d95f02; fill-opacity: 0.3; stroke: #d95f02; stroke-opacity: 0.3"/>
     <use xlink:href="#m283b3ffe18" x="214.5213" y="112.091566" style="fill: #d95f02; fill-opacity: 0.3; stroke: #d95f02; stroke-opacity: 0.3"/>
     <use xlink:href="#m283b3ffe18" x="218.17285" y="128.140604" style="fill: #d95f02; fill-opacity: 0.3; stroke: #d95f02; stroke-opacity: 0.3"/>
     <use xlink:href="#m283b3ffe18" x="221.8244" y="116.1563" style="fill: #d95f02; fill-opacity: 0.3; stroke: #d95f02; stroke-opacity: 0.3"/>
     <use xlink:href="#m283b3ffe18" x="225.47595" y="126.734873" style="fill: #d95f02; fill-opacity: 0.3; stroke: #d95f02; stroke-opacity: 0.3"/>
     <use xlink:href="#m283b3ffe18" x="229.1275" y="119.848952" style="fill: #d95f02; fill-opacity: 0.3; stroke: #d95f02; stroke-opacity: 0.3"/>
     <use xlink:href="#m283b3ffe18" x="232.77905" y="126.011048" style="fill: #d95f02; fill-opacity: 0.3; stroke: #d95f02; stroke-opacity: 0.3"/>
     <use xlink:href="#m283b3ffe18" x="236.4306" y="138.305773" style="fill: #d95f02; fill-opacity: 0.3; stroke: #d95f02; stroke-opacity: 0.3"/>
     <use xlink:href="#m283b3ffe18" x="240.08215" y="169.068005" style="fill: #d95f02; fill-opacity: 0.3; stroke: #d95f02; stroke-opacity: 0.3"/>
     <use xlink:href="#m283b3ffe18" x="243.7337" y="160.897905" style="fill: #d95f02; fill-opacity: 0.3; stroke: #d95f02; stroke-opacity: 0.3"/>
     <use xlink:href="#m283b3ffe18" x="247.38525" y="167.704753" style="fill: #d95f02; fill-opacity: 0.3; stroke: #d95f02; stroke-opacity: 0.3"/>
     <use xlink:href="#m283b3ffe18" x="251.0368" y="157.154045" style="fill: #d95f02; fill-opacity: 0.3; stroke: #d95f02; stroke-opacity: 0.3"/>
     <use xlink:href="#m283b3ffe18" x="254.68835" y="129.933353" style="fill: #d95f02; fill-opacity: 0.3; stroke: #d95f02; stroke-opacity: 0.3"/>
     <use xlink:href="#m283b3ffe18" x="258.3399" y="181.158826" style="fill: #d95f02; fill-opacity: 0.3; stroke: #d95f02; stroke-opacity: 0.3"/>
     <use xlink:href="#m283b3ffe18" x="261.99145" y="159.254878" style="fill: #d95f02; fill-opacity: 0.3; stroke: #d95f02; stroke-opacity: 0.3"/>
     <use xlink:href="#m283b3ffe18" x="265.643" y="172.164003" style="fill: #d95f02; fill-opacity: 0.3; stroke: #d95f02; stroke-opacity: 0.3"/>
     <use xlink:href="#m283b3ffe18" x="269.29455" y="170.003584" style="fill: #d95f02; fill-opacity: 0.3; stroke: #d95f02; stroke-opacity: 0.3"/>
     <use xlink:href="#m283b3ffe18" x="272.9461" y="159.256527" style="fill: #d95f02; fill-opacity: 0.3; stroke: #d95f02; stroke-opacity: 0.3"/>
     <use xlink:href="#m283b3ffe18" x="276.59765" y="174.174545" style="fill: #d95f02; fill-opacity: 0.3; stroke: #d95f02; stroke-opacity: 0.3"/>
     <use xlink:href="#m283b3ffe18" x="280.2492" y="142.785178" style="fill: #d95f02; fill-opacity: 0.3; stroke: #d95f02; stroke-opacity: 0.3"/>
     <use xlink:href="#m283b3ffe18" x="283.90075" y="139.045188" style="fill: #d95f02; fill-opacity: 0.3; stroke: #d95f02; stroke-opacity: 0.3"/>
     <use xlink:href="#m283b3ffe18" x="287.5523" y="143.603841" style="fill: #d95f02; fill-opacity: 0.3; stroke: #d95f02; stroke-opacity: 0.3"/>
     <use xlink:href="#m283b3ffe18" x="291.20385" y="156.582394" style="fill: #d95f02; fill-opacity: 0.3; stroke: #d95f02; stroke-opacity: 0.3"/>
     <use xlink:href="#m283b3ffe18" x="294.8554" y="162.808295" style="fill: #d95f02; fill-opacity: 0.3; stroke: #d95f02; stroke-opacity: 0.3"/>
     <use xlink:href="#m283b3ffe18" x="298.50695" y="137.879407" style="fill: #d95f02; fill-opacity: 0.3; stroke: #d95f02; stroke-opacity: 0.3"/>
     <use xlink:href="#m283b3ffe18" x="302.1585" y="148.776365" style="fill: #d95f02; fill-opacity: 0.3; stroke: #d95f02; stroke-opacity: 0.3"/>
     <use xlink:href="#m283b3ffe18" x="305.81005" y="114.847374" style="fill: #d95f02; fill-opacity: 0.3; stroke: #d95f02; stroke-opacity: 0.3"/>
     <use xlink:href="#m283b3ffe18" x="309.4616" y="136.288482" style="fill: #d95f02; fill-opacity: 0.3; stroke: #d95f02; stroke-opacity: 0.3"/>
     <use xlink:href="#m283b3ffe18" x="313.11315" y="118.454417" style="fill: #d95f02; fill-opacity: 0.3; stroke: #d95f02; stroke-opacity: 0.3"/>
     <use xlink:href="#m283b3ffe18" x="316.7647" y="120.982982" style="fill: #d95f02; fill-opacity: 0.3; stroke: #d95f02; stroke-opacity: 0.3"/>
     <use xlink:href="#m283b3ffe18" x="320.41625" y="130.66609" style="fill: #d95f02; fill-opacity: 0.3; stroke: #d95f02; stroke-opacity: 0.3"/>
     <use xlink:href="#m283b3ffe18" x="324.0678" y="110.495065" style="fill: #d95f02; fill-opacity: 0.3; stroke: #d95f02; stroke-opacity: 0.3"/>
     <use xlink:href="#m283b3ffe18" x="327.71935" y="125.395906" style="fill: #d95f02; fill-opacity: 0.3; stroke: #d95f02; stroke-opacity: 0.3"/>
     <use xlink:href="#m283b3ffe18" x="331.3709" y="125.167811" style="fill: #d95f02; fill-opacity: 0.3; stroke: #d95f02; stroke-opacity: 0.3"/>
     <use xlink:href="#m283b3ffe18" x="335.02245" y="119.526512" style="fill: #d95f02; fill-opacity: 0.3; stroke: #d95f02; stroke-opacity: 0.3"/>
     <use xlink:href="#m283b3ffe18" x="338.674" y="121.77582" style="fill: #d95f02; fill-opacity: 0.3; stroke: #d95f02; stroke-opacity: 0.3"/>
     <use xlink:href="#m283b3ffe18" x="342.32555" y="94.408223" style="fill: #d95f02; fill-opacity: 0.3; stroke: #d95f02; stroke-opacity: 0.3"/>
     <use xlink:href="#m283b3ffe18" x="345.9771" y="110.674233" style="fill: #d95f02; fill-opacity: 0.3; stroke: #d95f02; stroke-opacity: 0.3"/>
     <use xlink:href="#m283b3ffe18" x="349.62865" y="101.233149" style="fill: #d95f02; fill-opacity: 0.3; stroke: #d95f02; stroke-opacity: 0.3"/>
     <use xlink:href="#m283b3ffe18" x="353.2802" y="72.094416" style="fill: #d95f02; fill-opacity: 0.3; stroke: #d95f02; stroke-opacity: 0.3"/>
     <use xlink:href="#m283b3ffe18" x="356.93175" y="95.481904" style="fill: #d95f02; fill-opacity: 0.3; stroke: #d95f02; stroke-opacity: 0.3"/>
     <use xlink:href="#m283b3ffe18" x="360.5833" y="112.48809" style="fill: #d95f02; fill-opacity: 0.3; stroke: #d95f02; stroke-opacity: 0.3"/>
     <use xlink:href="#m283b3ffe18" x="364.23485" y="69.629738" style="fill: #d95f02; fill-opacity: 0.3; stroke: #d95f02; stroke-opacity: 0.3"/>
     <use xlink:href="#m283b3ffe18" x="367.8864" y="100.737532" style="fill: #d95f02; fill-opacity: 0.3; stroke: #d95f02; stroke-opacity: 0.3"/>
     <use xlink:href="#m283b3ffe18" x="371.53795" y="32.44388" style="fill: #d95f02; fill-opacity: 0.3; stroke: #d95f02; stroke-opacity: 0.3"/>
     <use xlink:href="#m283b3ffe18" x="375.1895" y="52.024796" style="fill: #d95f02; fill-opacity: 0.3; stroke: #d95f02; stroke-opacity: 0.3"/>
     <use xlink:href="#m283b3ffe18" x="378.84105" y="74.653405" style="fill: #d95f02; fill-opacity: 0.3; stroke: #d95f02; stroke-opacity: 0.3"/>
     <use xlink:href="#m283b3ffe18" x="382.4926" y="81.66551" style="fill: #d95f02; fill-opacity: 0.3; stroke: #d95f02; stroke-opacity: 0.3"/>
     <use xlink:href="#m283b3ffe18" x="386.14415" y="104.151155" style="fill: #d95f02; fill-opacity: 0.3; stroke: #d95f02; stroke-opacity: 0.3"/>
     <use xlink:href="#m283b3ffe18" x="389.7957" y="84.790087" style="fill: #d95f02; fill-opacity: 0.3; stroke: #d95f02; stroke-opacity: 0.3"/>
     <use xlink:href="#m283b3ffe18" x="393.44725" y="107.076248" style="fill: #d95f02; fill-opacity: 0.3; stroke: #d95f02; stroke-opacity: 0.3"/>
     <use xlink:href="#m283b3ffe18" x="397.0988" y="116.319341" style="fill: #d95f02; fill-opacity: 0.3; stroke: #d95f02; stroke-opacity: 0.3"/>
     <use xlink:href="#m283b3ffe18" x="400.75035" y="110.158723" style="fill: #d95f02; fill-opacity: 0.3; stroke: #d95f02; stroke-opacity: 0.3"/>
     <use xlink:href="#m283b3ffe18" x="404.4019" y="128.073108" style="fill: #d95f02; fill-opacity: 0.3; stroke: #d95f02; stroke-opacity: 0.3"/>
     <use xlink:href="#m283b3ffe18" x="408.05345" y="132.373741" style="fill: #d95f02; fill-opacity: 0.3; stroke: #d95f02; stroke-opacity: 0.3"/>
     <use xlink:href="#m283b3ffe18" x="411.705" y="120.128637" style="fill: #d95f02; fill-opacity: 0.3; stroke: #d95f02; stroke-opacity: 0.3"/>
    </g>
   </g>
   <g id="line2d_32">
    <path d="M 46.55 141.488889 
L 50.20155 155.947414 
L 53.8531 159.086563 
L 57.50465 151.529528 
L 61.1562 150.581188 
L 64.80775 153.551101 
L 68.4593 152.671293 
L 72.11085 144.976449 
L 75.7624 143.793711 
L 79.41395 134.051515 
L 83.0655 139.324472 
L 86.71705 144.857709 
L 90.3686 145.629791 
L 94.02015 145.187884 
L 97.6717 154.310374 
L 101.32325 150.729945 
L 104.9748 154.508196 
L 108.62635 152.315751 
L 112.2779 162.579816 
L 115.92945 175.795087 
L 119.581 171.863614 
L 123.23255 176.532254 
L 126.8841 194.817122 
L 130.53565 188.41005 
L 134.1872 186.29114 
L 137.83875 180.509117 
L 141.4903 188.285305 
L 145.14185 199.980445 
L 148.7934 194.572842 
L 152.44495 186.524489 
L 156.0965 175.223236 
L 159.74805 170.977416 
L 163.3996 173.210441 
L 167.05115 160.589507 
L 170.7027 157.293877 
L 174.35425 157.838181 
L 178.0058 155.800891 
L 181.65735 147.038868 
L 185.3089 130.94632 
L 188.96045 134.326278 
L 192.612 125.576254 
L 196.26355 131.036558 
L 199.9151 125.369435 
L 203.56665 130.089098 
L 207.2182 124.078635 
L 210.86975 116.500709 
L 214.5213 128.995207 
L 218.17285 129.71018 
L 221.8244 130.779873 
L 225.47595 125.62307 
L 229.1275 144.632472 
L 232.77905 138.339469 
L 236.4306 140.690421 
L 240.08215 154.822104 
L 243.7337 164.913676 
L 247.38525 169.897092 
L 251.0368 159.587937 
L 254.68835 170.333505 
L 258.3399 168.350868 
L 261.99145 162.953034 
L 265.643 170.139787 
L 269.29455 160.714534 
L 272.9461 161.776176 
L 276.59765 163.87466 
L 280.2492 156.518052 
L 283.90075 149.116589 
L 287.5523 154.253099 
L 291.20385 158.417216 
L 294.8554 153.977886 
L 298.50695 149.706777 
L 302.1585 137.354579 
L 305.81005 135.358851 
L 309.4616 133.107985 
L 313.11315 124.146111 
L 316.7647 118.511557 
L 320.41625 121.801225 
L 324.0678 128.074271 
L 327.71935 120.022947 
L 331.3709 105.257991 
L 335.02245 101.841408 
L 338.674 108.069251 
L 342.32555 110.980873 
L 345.9771 111.106961 
L 349.62865 99.779469 
L 353.2802 99.363348 
L 356.93175 106.145733 
L 360.5833 98.371685 
L 364.23485 85.201379 
L 367.8864 71.927913 
L 371.53795 68.608208 
L 375.1895 78.984005 
L 378.84105 78.783602 
L 382.4926 89.429402 
L 386.14415 94.311369 
L 389.7957 93.012626 
L 393.44725 109.971291 
L 397.0988 108.473369 
L 400.75035 101.65812 
L 404.4019 108.780204 
L 408.05345 115.016467 
L 411.705 104.426929 
" clip-path="url(#pcbb1456d97)" style="fill: none; stroke: #7570b3; stroke-width: 1.5; stroke-linecap: square"/>
   </g>
   <g id="line2d_33">
    <path d="M 50.20155 149.742197 
L 53.8531 168.438028 
L 57.50465 155.690788 
L 61.1562 156.775115 
L 64.80775 145.018782 
L 68.4593 147.454109 
L 72.11085 155.480821 
L 75.7624 161.70675 
L 79.41395 158.005408 
L 83.0655 144.607315 
L 86.71705 135.448345 
L 90.3686 142.297025 
L 94.02015 151.32566 
L 97.6717 145.219872 
L 101.32325 139.636662 
L 104.9748 151.792942 
L 108.62635 160.149557 
L 112.2779 169.680557 
L 115.92945 175.263381 
L 119.581 160.528995 
L 123.23255 173.117194 
L 126.8841 189.711635 
L 130.53565 163.011876 
L 134.1872 170.420408 
L 137.83875 171.106453 
L 141.4903 176.875572 
L 145.14185 183.24052 
L 148.7934 178.613713 
L 152.44495 188.333234 
L 156.0965 190.051625 
L 159.74805 182.114712 
L 163.3996 172.603669 
L 167.05115 166.165766 
L 170.7027 178.353703 
L 174.35425 156.351338 
L 178.0058 152.108458 
L 181.65735 147.5469 
L 185.3089 144.238707 
L 188.96045 137.54708 
L 192.612 140.967077 
L 196.26355 138.559126 
L 199.9151 131.486843 
L 203.56665 133.046774 
L 207.2182 127.780635 
L 210.86975 115.995496 
L 214.5213 114.903939 
L 218.17285 120.136697 
L 221.8244 119.25796 
L 225.47595 121.290498 
L 229.1275 119.813996 
L 232.77905 123.308507 
L 236.4306 128.856251 
L 240.08215 143.039379 
L 243.7337 150.129222 
L 247.38525 155.936576 
L 251.0368 155.894639 
L 254.68835 146.330576 
L 258.3399 157.810148 
L 261.99145 158.16555 
L 265.643 163.563078 
L 269.29455 166.114727 
L 272.9461 163.526421 
L 276.59765 166.505396 
L 280.2492 159.18705 
L 283.90075 153.003319 
L 287.5523 148.516387 
L 291.20385 152.269181 
L 294.8554 155.829888 
L 298.50695 149.604162 
L 302.1585 149.264624 
L 305.81005 137.582036 
L 309.4616 137.489452 
L 313.11315 130.051914 
L 316.7647 126.842519 
L 320.41625 128.488118 
L 324.0678 122.925696 
L 327.71935 123.792854 
L 331.3709 124.994155 
L 335.02245 123.895921 
L 338.674 123.52843 
L 342.32555 114.239314 
L 345.9771 111.669232 
L 349.62865 108.126819 
L 353.2802 96.211702 
L 356.93175 95.80752 
L 360.5833 100.881616 
L 364.23485 91.006948 
L 367.8864 93.703061 
L 371.53795 73.560095 
L 375.1895 66.334366 
L 378.84105 71.299124 
L 382.4926 74.488005 
L 386.14415 83.173324 
L 389.7957 83.801838 
L 393.44725 93.012296 
L 397.0988 101.256689 
L 400.75035 103.426067 
L 404.4019 111.723178 
L 408.05345 118.516779 
L 411.705 118.368076 
" clip-path="url(#pcbb1456d97)" style="fill: none; stroke-dasharray: 5.55,2.4; stroke-dashoffset: 0; stroke: #e7298a; stroke-width: 1.5"/>
   </g>
   <g id="legend_1">
    <g id="patch_7">
     <path d="M 53.55 77.5125 
L 158.478125 77.5125 
Q 160.478125 77.5125 160.478125 75.5125 
L 160.478125 17.8 
Q 160.478125 15.8 158.478125 15.8 
L 53.55 15.8 
Q 51.55 15.8 51.55 17.8 
L 51.55 75.5125 
Q 51.55 77.5125 53.55 77.5125 
z
" style="fill: #ffffff; opacity: 0.8; stroke: #cccccc; stroke-linejoin: miter"/>
    </g>
    <g id="line2d_34">
     <path d="M 55.55 23.898438 
L 65.55 23.898438 
L 75.55 23.898438 
" style="fill: none; stroke: #7570b3; stroke-width: 1.5; stroke-linecap: square"/>
    </g>
    <g id="text_18">
     <!-- true process -->
     <g transform="translate(83.55 27.398438) scale(0.1 -0.1)">
      <defs>
       <path id="DejaVuSans-72" d="M 2631 2963 
Q 2534 3019 2420 3045 
Q 2306 3072 2169 3072 
Q 1681 3072 1420 2755 
Q 1159 2438 1159 1844 
L 1159 0 
L 581 0 
L 581 3500 
L 1159 3500 
L 1159 2956 
Q 1341 3275 1631 3429 
Q 1922 3584 2338 3584 
Q 2397 3584 2469 3576 
Q 2541 3569 2628 3553 
L 2631 2963 
z
" transform="scale(0.015625)"/>
       <path id="DejaVuSans-75" d="M 544 1381 
L 544 3500 
L 1119 3500 
L 1119 1403 
Q 1119 906 1312 657 
Q 1506 409 1894 409 
Q 2359 409 2629 706 
Q 2900 1003 2900 1516 
L 2900 3500 
L 3475 3500 
L 3475 0 
L 2900 0 
L 2900 538 
Q 2691 219 2414 64 
Q 2138 -91 1772 -91 
Q 1169 -91 856 284 
Q 544 659 544 1381 
z
M 1991 3584 
L 1991 3584 
z
" transform="scale(0.015625)"/>
      </defs>
      <use xlink:href="#DejaVuSans-74"/>
      <use xlink:href="#DejaVuSans-72" x="39.208984"/>
      <use xlink:href="#DejaVuSans-75" x="80.322266"/>
      <use xlink:href="#DejaVuSans-65" x="143.701172"/>
      <use xlink:href="#DejaVuSans-20" x="205.224609"/>
      <use xlink:href="#DejaVuSans-70" x="237.011719"/>
      <use xlink:href="#DejaVuSans-72" x="300.488281"/>
      <use xlink:href="#DejaVuSans-6f" x="339.351562"/>
      <use xlink:href="#DejaVuSans-63" x="400.533203"/>
      <use xlink:href="#DejaVuSans-65" x="455.513672"/>
      <use xlink:href="#DejaVuSans-73" x="517.037109"/>
      <use xlink:href="#DejaVuSans-73" x="569.136719"/>
     </g>
    </g>
    <g id="line2d_35">
     <path d="M 55.55 38.576562 
L 65.55 38.576562 
L 75.55 38.576562 
" style="fill: none; stroke: #d95f02; stroke-opacity: 0.3; stroke-width: 1.5; stroke-linecap: square"/>
     <g>
      <use xlink:href="#m283b3ffe18" x="65.55" y="38.576562" style="fill: #d95f02; fill-opacity: 0.3; stroke: #d95f02; stroke-opacity: 0.3"/>
     </g>
    </g>
    <g id="text_19">
     <!-- observations -->
     <g transform="translate(83.55 42.076562) scale(0.1 -0.1)">
      <defs>
       <path id="DejaVuSans-62" d="M 3116 1747 
Q 3116 2381 2855 2742 
Q 2594 3103 2138 3103 
Q 1681 3103 1420 2742 
Q 1159 2381 1159 1747 
Q 1159 1113 1420 752 
Q 1681 391 2138 391 
Q 2594 391 2855 752 
Q 3116 1113 3116 1747 
z
M 1159 2969 
Q 1341 3281 1617 3432 
Q 1894 3584 2278 3584 
Q 2916 3584 3314 3078 
Q 3713 2572 3713 1747 
Q 3713 922 3314 415 
Q 2916 -91 2278 -91 
Q 1894 -91 1617 61 
Q 1341 213 1159 525 
L 1159 0 
L 581 0 
L 581 4863 
L 1159 4863 
L 1159 2969 
z
" transform="scale(0.015625)"/>
       <path id="DejaVuSans-61" d="M 2194 1759 
Q 1497 1759 1228 1600 
Q 959 1441 959 1056 
Q 959 750 1161 570 
Q 1363 391 1709 391 
Q 2188 391 2477 730 
Q 2766 1069 2766 1631 
L 2766 1759 
L 2194 1759 
z
M 3341 1997 
L 3341 0 
L 2766 0 
L 2766 531 
Q 2569 213 2275 61 
Q 1981 -91 1556 -91 
Q 1019 -91 701 211 
Q 384 513 384 1019 
Q 384 1609 779 1909 
Q 1175 2209 1959 2209 
L 2766 2209 
L 2766 2266 
Q 2766 2663 2505 2880 
Q 2244 3097 1772 3097 
Q 1472 3097 1187 3025 
Q 903 2953 641 2809 
L 641 3341 
Q 956 3463 1253 3523 
Q 1550 3584 1831 3584 
Q 2591 3584 2966 3190 
Q 3341 2797 3341 1997 
z
" transform="scale(0.015625)"/>
       <path id="DejaVuSans-6e" d="M 3513 2113 
L 3513 0 
L 2938 0 
L 2938 2094 
Q 2938 2591 2744 2837 
Q 2550 3084 2163 3084 
Q 1697 3084 1428 2787 
Q 1159 2491 1159 1978 
L 1159 0 
L 581 0 
L 581 3500 
L 1159 3500 
L 1159 2956 
Q 1366 3272 1645 3428 
Q 1925 3584 2291 3584 
Q 2894 3584 3203 3211 
Q 3513 2838 3513 2113 
z
" transform="scale(0.015625)"/>
      </defs>
      <use xlink:href="#DejaVuSans-6f"/>
      <use xlink:href="#DejaVuSans-62" x="61.181641"/>
      <use xlink:href="#DejaVuSans-73" x="124.658203"/>
      <use xlink:href="#DejaVuSans-65" x="176.757812"/>
      <use xlink:href="#DejaVuSans-72" x="238.28125"/>
      <use xlink:href="#DejaVuSans-76" x="279.394531"/>
      <use xlink:href="#DejaVuSans-61" x="338.574219"/>
      <use xlink:href="#DejaVuSans-74" x="399.853516"/>
      <use xlink:href="#DejaVuSans-69" x="439.0625"/>
      <use xlink:href="#DejaVuSans-6f" x="466.845703"/>
      <use xlink:href="#DejaVuSans-6e" x="528.027344"/>
      <use xlink:href="#DejaVuSans-73" x="591.40625"/>
     </g>
    </g>
    <g id="line2d_36">
     <path d="M 55.55 53.254687 
L 65.55 53.254687 
L 75.55 53.254687 
" style="fill: none; stroke-dasharray: 5.55,2.4; stroke-dashoffset: 0; stroke: #e7298a; stroke-width: 1.5"/>
    </g>
    <g id="text_20">
     <!-- KF estimate -->
     <g transform="translate(83.55 56.754687) scale(0.1 -0.1)">
      <defs>
       <path id="DejaVuSans-4b" d="M 628 4666 
L 1259 4666 
L 1259 2694 
L 3353 4666 
L 4166 4666 
L 1850 2491 
L 4331 0 
L 3500 0 
L 1259 2247 
L 1259 0 
L 628 0 
L 628 4666 
z
" transform="scale(0.015625)"/>
       <path id="DejaVuSans-46" d="M 628 4666 
L 3309 4666 
L 3309 4134 
L 1259 4134 
L 1259 2759 
L 3109 2759 
L 3109 2228 
L 1259 2228 
L 1259 0 
L 628 0 
L 628 4666 
z
" transform="scale(0.015625)"/>
      </defs>
      <use xlink:href="#DejaVuSans-4b"/>
      <use xlink:href="#DejaVuSans-46" x="65.576172"/>
      <use xlink:href="#DejaVuSans-20" x="123.095703"/>
      <use xlink:href="#DejaVuSans-65" x="154.882812"/>
      <use xlink:href="#DejaVuSans-73" x="216.40625"/>
      <use xlink:href="#DejaVuSans-74" x="268.505859"/>
      <use xlink:href="#DejaVuSans-69" x="307.714844"/>
      <use xlink:href="#DejaVuSans-6d" x="335.498047"/>
      <use xlink:href="#DejaVuSans-61" x="432.910156"/>
      <use xlink:href="#DejaVuSans-74" x="494.189453"/>
      <use xlink:href="#DejaVuSans-65" x="533.398438"/>
     </g>
    </g>
    <g id="patch_8">
     <path d="M 55.55 71.432813 
L 75.55 71.432813 
L 75.55 64.432813 
L 55.55 64.432813 
z
" style="fill: #666666; fill-opacity: 0.2; stroke: #666666; stroke-opacity: 0.2; stroke-linejoin: miter"/>
    </g>
    <g id="text_21">
     <!-- KF uncertainty -->
     <g transform="translate(83.55 71.432813) scale(0.1 -0.1)">
      <use xlink:href="#DejaVuSans-4b"/>
      <use xlink:href="#DejaVuSans-46" x="65.576172"/>
      <use xlink:href="#DejaVuSans-20" x="123.095703"/>
      <use xlink:href="#DejaVuSans-75" x="154.882812"/>
      <use xlink:href="#DejaVuSans-6e" x="218.261719"/>
      <use xlink:href="#DejaVuSans-63" x="281.640625"/>
      <use xlink:href="#DejaVuSans-65" x="336.621094"/>
      <use xlink:href="#DejaVuSans-72" x="398.144531"/>
      <use xlink:href="#DejaVuSans-74" x="439.257812"/>
      <use xlink:href="#DejaVuSans-61" x="478.466797"/>
      <use xlink:href="#DejaVuSans-69" x="539.746094"/>
      <use xlink:href="#DejaVuSans-6e" x="567.529297"/>
      <use xlink:href="#DejaVuSans-74" x="630.908203"/>
      <use xlink:href="#DejaVuSans-79" x="670.117188"/>
     </g>
    </g>
   </g>
  </g>
 </g>
 <defs>
  <clipPath id="pcbb1456d97">
   <rect x="46.55" y="10.8" width="365.155" height="235.24"/>
  </clipPath>
 </defs>
</svg>
